<svg id="visual" viewBox="0 0 1920 1080" width="1920" height="1080" xmlns="http://www.w3.org/2000/svg" xmlns:xlink="http://www.w3.org/1999/xlink" version="1.1"><path d="M0 743L45.7 746C91.3 749 182.7 755 274.2 766.5C365.7 778 457.3 795 548.8 797.2C640.3 799.3 731.7 786.7 823 792.7C914.3 798.7 1005.7 823.3 1097 821.7C1188.3 820 1279.7 792 1371.2 782.3C1462.7 772.7 1554.3 781.3 1645.8 778C1737.3 774.7 1828.7 759.3 1874.3 751.7L1920 744L1920 1081L1874.3 1081C1828.7 1081 1737.3 1081 1645.8 1081C1554.3 1081 1462.7 1081 1371.2 1081C1279.7 1081 1188.3 1081 1097 1081C1005.7 1081 914.3 1081 823 1081C731.7 1081 640.3 1081 548.8 1081C457.3 1081 365.7 1081 274.2 1081C182.7 1081 91.3 1081 45.7 1081L0 1081Z" fill="#b1d863"></path><path d="M0 877L45.7 871C91.3 865 182.7 853 274.2 839.8C365.7 826.7 457.3 812.3 548.8 818.5C640.3 824.7 731.7 851.3 823 847.2C914.3 843 1005.7 808 1097 810.5C1188.3 813 1279.7 853 1371.2 854.2C1462.7 855.3 1554.3 817.7 1645.8 803.5C1737.3 789.3 1828.7 798.7 1874.3 803.3L1920 808L1920 1081L1874.3 1081C1828.7 1081 1737.3 1081 1645.8 1081C1554.3 1081 1462.7 1081 1371.2 1081C1279.7 1081 1188.3 1081 1097 1081C1005.7 1081 914.3 1081 823 1081C731.7 1081 640.3 1081 548.8 1081C457.3 1081 365.7 1081 274.2 1081C182.7 1081 91.3 1081 45.7 1081L0 1081Z" fill="#97c759"></path><path d="M0 847L45.7 852.2C91.3 857.3 182.7 867.7 274.2 868.2C365.7 868.7 457.3 859.3 548.8 858.5C640.3 857.7 731.7 865.3 823 862C914.3 858.7 1005.7 844.3 1097 850C1188.3 855.7 1279.7 881.3 1371.2 885.8C1462.7 890.3 1554.3 873.7 1645.8 863.5C1737.3 853.3 1828.7 849.7 1874.3 847.8L1920 846L1920 1081L1874.3 1081C1828.7 1081 1737.3 1081 1645.8 1081C1554.3 1081 1462.7 1081 1371.2 1081C1279.7 1081 1188.3 1081 1097 1081C1005.7 1081 914.3 1081 823 1081C731.7 1081 640.3 1081 548.8 1081C457.3 1081 365.7 1081 274.2 1081C182.7 1081 91.3 1081 45.7 1081L0 1081Z" fill="#7eb650"></path><path d="M0 960L45.7 957C91.3 954 182.7 948 274.2 944C365.7 940 457.3 938 548.8 929.5C640.3 921 731.7 906 823 898.5C914.3 891 1005.7 891 1097 891.3C1188.3 891.7 1279.7 892.3 1371.2 900.8C1462.7 909.3 1554.3 925.7 1645.8 934.2C1737.3 942.7 1828.7 943.3 1874.3 943.7L1920 944L1920 1081L1874.3 1081C1828.7 1081 1737.3 1081 1645.8 1081C1554.3 1081 1462.7 1081 1371.2 1081C1279.7 1081 1188.3 1081 1097 1081C1005.7 1081 914.3 1081 823 1081C731.7 1081 640.3 1081 548.8 1081C457.3 1081 365.7 1081 274.2 1081C182.7 1081 91.3 1081 45.7 1081L0 1081Z" fill="#66a446"></path><path d="M0 983L45.7 975.7C91.3 968.3 182.7 953.7 274.2 952C365.7 950.3 457.3 961.7 548.8 963.8C640.3 966 731.7 959 823 965C914.3 971 1005.7 990 1097 992.5C1188.3 995 1279.7 981 1371.2 978.7C1462.7 976.3 1554.3 985.7 1645.8 989.5C1737.3 993.3 1828.7 991.7 1874.3 990.8L1920 990L1920 1081L1874.3 1081C1828.7 1081 1737.3 1081 1645.8 1081C1554.3 1081 1462.7 1081 1371.2 1081C1279.7 1081 1188.3 1081 1097 1081C1005.7 1081 914.3 1081 823 1081C731.7 1081 640.3 1081 548.8 1081C457.3 1081 365.7 1081 274.2 1081C182.7 1081 91.3 1081 45.7 1081L0 1081Z" fill="#4d933e"></path><path d="M0 1040L45.7 1033.8C91.3 1027.7 182.7 1015.3 274.2 1012.7C365.7 1010 457.3 1017 548.8 1019C640.3 1021 731.7 1018 823 1021.3C914.3 1024.7 1005.7 1034.3 1097 1030C1188.3 1025.7 1279.7 1007.3 1371.2 1007.7C1462.7 1008 1554.3 1027 1645.8 1030.5C1737.3 1034 1828.7 1022 1874.3 1016L1920 1010L1920 1081L1874.3 1081C1828.7 1081 1737.3 1081 1645.8 1081C1554.3 1081 1462.7 1081 1371.2 1081C1279.7 1081 1188.3 1081 1097 1081C1005.7 1081 914.3 1081 823 1081C731.7 1081 640.3 1081 548.8 1081C457.3 1081 365.7 1081 274.2 1081C182.7 1081 91.3 1081 45.7 1081L0 1081Z" fill="#348235"></path></svg>